<?xml version="1.0" standalone="no"?>
<!DOCTYPE svg PUBLIC "-//W3C//DTD SVG 20010904//EN"
 "http://www.w3.org/TR/2001/REC-SVG-20010904/DTD/svg10.dtd">
<svg version="1.0" xmlns="http://www.w3.org/2000/svg"
 width="640.000000pt" height="640.000000pt" viewBox="0 0 640.000000 640.000000"
 preserveAspectRatio="xMidYMid meet">
<g transform="translate(0.000000,640.000000) scale(0.100000,-0.100000)"
fill="#000000" stroke="none">
<path d="M2323 6198 c36 -260 35 -701 -2 -938 -77 -501 -259 -912 -550 -1245
-38 -44 -68 -81 -67 -82 2 -2 36 11 77 27 41 17 148 58 239 92 l165 60 145 5
c329 12 708 -51 1092 -183 202 -70 328 -123 546 -231 201 -101 197 -83 38
-191 -172 -116 -456 -251 -699 -331 l-98 -33 -112 21 c-404 74 -1192 111
-1507 70 -169 -22 -296 -65 -318 -106 -6 -10 -21 -83 -36 -163 -84 -466 -85
-596 -8 -1095 l38 -240 49 -27 c206 -114 470 -167 865 -175 423 -9 766 31
1340 153 19 4 87 -26 265 -115 238 -119 438 -241 525 -318 l44 -40 -88 -52
c-208 -123 -428 -214 -663 -276 l-91 -24 -131 44 c-394 133 -714 189 -1081
189 -359 0 -523 -37 -503 -114 8 -31 69 -95 186 -196 258 -222 556 -382 856
-460 404 -105 877 -51 1251 142 369 191 712 560 935 1004 97 194 186 431 199
530 5 38 1 53 -24 98 -17 29 -62 86 -101 126 -60 64 -67 75 -54 86 9 7 37 46
64 86 151 225 158 542 21 954 -127 385 -397 858 -676 1183 -76 90 -328 335
-587 572 -71 65 -152 149 -180 188 -46 63 -89 98 -446 366 -218 163 -499 372
-626 465 -126 93 -245 181 -264 195 l-34 26 6 -47z"/>
</g>
</svg>
